<?xml version="1.0" encoding="utf-8" ?>
<svg baseProfile="full" height="200mm" version="1.1" viewBox="0,0,200,200" width="200mm" xmlns="http://www.w3.org/2000/svg" xmlns:ev="http://www.w3.org/2001/xml-events" xmlns:xlink="http://www.w3.org/1999/xlink"><defs /><rect fill="#1a1a1a" height="200" width="200" x="0" y="0" /><text alignment-baseline="middle" fill="#e1ed5e" style="dominant-baseline: central; font-size:9.0px; font-family:Arial;" text-anchor="middle" x="100.0" y="100.0">2022</text><line stroke="#e1ed5e" stroke-width="0.3" x1="100.0" x2="100.0" y1="15.0" y2="10.0" /><path d="M 100.0 14.0 a86.0,86.0 0 0,1 42.46469731375804,11.215312516191453" fill="none" id="id37" stroke="none" /><text fill="#e1ed5e" style="font-size:6.75px; font-family:Arial;" text-anchor="middle"><textPath startOffset="22.20632615414155" xlink:href="#id37">January</textPath></text><path d="M 102.52436894288641 79.15227682838746 l 0.7765215012563792 -6.4129711865681305 a27.45981308411215,27.45981308411215 0 0,0 0.46875897850389253,0.060858368882569444 l -0.8867952082681179 6.398654494521424" fill="#ff0801" stroke="none" /><line stroke="#e1ed5e" stroke-width="0.3" x1="143.23703022742887" x2="145.7803849466894" y1="26.81831364943548" y2="22.513508569990506" /><path d="M 143.74570117128098 25.957352633546492 a86.0,86.0 0 0,1 28.547481713284135,27.462654790039103" fill="none" id="id38" stroke="none" /><text fill="#e1ed5e" style="font-size:6.75px; font-family:Arial;" text-anchor="middle"><textPath startOffset="19.985693538727396" xlink:href="#id38">February</textPath></text><path d="M 114.68862486808459 84.99185889309783 l 10.936651957855027 -11.174552913881453 a36.63588785046729,36.63588785046729 0 0,0 0.44689537601784113,0.4449762652503377 l -11.12738313404019 10.984640797980997" fill="#ff920d" stroke="none" /><path d="M 115.68641384162765 86.03803664274999 l 11.169815698656468 -9.94188723225063 a35.95345794392523,35.95345794392523 0 0,0 0.40748645348408824,0.46582745748826687 l -11.339294015718403 9.748144218559416" fill="#ff880c" stroke="none" /><path d="M 116.60985879189232 87.15038557335679 l 31.92419295010994 -24.696993239395233 a61.36205607476635,61.36205607476635 0 0,0 0.6391122867080236,0.8409968534075934 l -32.34458117704207 24.143811610106606" fill="#37ff2e" stroke="none" /><path d="M 117.45458315368197 88.32363383020206 l 13.01286946998132 -8.705050559699824 a36.65607476635514,36.65607476635514 0 0,0 0.34631850324839647,0.5274668399941108 l -13.160784608587642 8.47976565572804" fill="#ff930d" stroke="none" /><line stroke="#e1ed5e" stroke-width="0.3" x1="172.23445277983987" x2="176.4835382374775" y1="55.19839476539836" y2="52.563006222186495" /><path d="M 173.08426987136738 54.67131705675599 a86.0,86.0 0 0,1 12.851231095245387,41.99856678651699" fill="none" id="id39" stroke="none" /><text fill="#e1ed5e" style="font-size:6.75px; font-family:Arial;" text-anchor="middle"><textPath startOffset="22.20632615414155" xlink:href="#id39">March</textPath></text><path d="M 119.34039704204932 91.81776055985345 l 5.511367616361827 -2.3316651349864874 a26.98429906542056,26.98429906542056 0 0,0 0.17729752693357567,0.42934002458334175 l -5.550686830181601 2.2364505399498427" fill="#ff0000" stroke="none" /><path d="M 119.85752413597 93.16781622104841 l 13.738013159915798 -4.726703592225809 a35.52841121495327,35.52841121495327 0 0,0 0.19398970370933033,0.5800045226153567 l -13.817340157396899 4.489525966688139" fill="#ff820c" stroke="none" /><path d="M 120.08093135843002 93.85539295169968 l 15.782700496769802 -4.829382212541295 a37.50504672897196,37.50504672897196 0 0,0 0.18358560153754083,0.618959383093327 l -15.863491995419047 4.556993442701438" fill="#ff9f0e" stroke="none" /><path d="M 120.28053869075195 94.5502522615342 l 14.584658692104979 -3.9191617114115043 a36.10205607476635,36.10205607476635 0 0,0 0.15610471993394318,0.6015351650284089 l -14.649959743909225 3.667530120834245" fill="#ff8b0c" stroke="none" /><path d="M 120.6074358757038 95.95851677861258 l 17.50559032079479 -3.433156361068046 a38.83906542056075,38.83906542056075 0 0,0 0.12301677716505785,0.6571605426090925 l -17.562092821869708 3.1313177409963906" fill="#ffb210" stroke="none" /><path d="M 120.73433829027371 96.67025291283417 l 13.000900713810612 -2.087826998686997 a34.16747663551402,34.16747663551402 0 0,0 0.08825639254890733,0.5814993560407383 l -13.03491299979882 1.8637285302541766" fill="#ff6e0a" stroke="none" /><path d="M 120.87857604477298 97.74499172005257 l 21.409878660812208 -2.3123920687535686 a42.53439252336449,42.53439252336449 0 0,0 0.07235479801404295,0.7286029417750733 l -21.44651058450848 1.9435135962740604" fill="#ffe515" stroke="none" /><path d="M 120.94382443527127 98.46500227214037 l 20.29621565834084 -1.4875337126697408 a41.35065420560747,41.35065420560747 0 0,0 0.045917753221692684,0.7103273186609524 l -20.31881400256695 1.137947329755753" fill="#ffd513" stroke="none" /><line stroke="#e1ed5e" stroke-width="0.3" x1="184.98032266829074" x2="189.97916517819016" y1="98.17113171792111" y2="98.06355123074" /><path d="M 185.9800911702706 98.14961562048488 a86.0,86.0 0 0,1 -9.607161424134198,41.387399972396054" fill="none" id="id40" stroke="none" /><text fill="#e1ed5e" style="font-size:6.75px; font-family:Arial;" text-anchor="middle"><textPath startOffset="21.466115282336823" xlink:href="#id40">April</textPath></text><path d="M 120.89721153311464 102.0752229133903 l 15.63803346369928 1.5529538624235824 a36.71495327102804,36.71495327102804 0 0,0 -0.0678661898322731,0.6283566308302612 l -15.608984972365954 -1.8219068151386348" fill="#ff930d" stroke="none" /><path d="M 120.13307415673323 105.97154293290107 l 19.08905733397285 5.661883750639556 a40.911028037383176,40.911028037383176 0 0,0 -0.2060614988383864,0.6734209008423769 l -18.988769062628332 -5.989631624033991" fill="#ffce13" stroke="none" /><path d="M 119.67450827220406 107.3425965602758 l 16.820785203189043 6.277576947047005 a38.954018691588786,38.954018691588786 0 0,0 -0.23985606903066148,0.6261885089248375 l -16.710234854564874 -6.566189022804986" fill="#ffb310" stroke="none" /><path d="M 119.12269723197855 108.67885076344098 l 16.423052365076796 7.4536148759560055 a39.03532710280374,39.03532710280374 0 0,0 -0.28296036309556266,0.6094714487721967 l -16.292317385141402 -7.735206392007033" fill="#ffb410" stroke="none" /><line stroke="#e1ed5e" stroke-width="0.3" x1="174.80103733775053" x2="179.2010983576182" y1="140.37084112569926" y2="142.7455964860345" /><path d="M 175.68104954172406 140.8457921977663 a86.0,86.0 0 0,1 -30.038265399797805,32.042727171017184" fill="none" id="id41" stroke="none" /><text fill="#e1ed5e" style="font-size:6.75px; font-family:Arial;" text-anchor="middle"><textPath startOffset="22.206326154141568" xlink:href="#id41">May</textPath></text><path d="M 118.48025628344425 109.97397251340804 l 13.298876017058008 7.177531621798313 a36.112149532710276,36.112149532710276 0 0,0 -0.29994337066282467,0.5444843421944286 l -13.173356236943674 -7.405386482390547" fill="#ff8b0c" stroke="none" /><path d="M 117.55443506779139 111.5257021239791 l 17.8188062661421 11.699280121253446 a42.316261682242995,42.316261682242995 0 0,0 -0.4050208185122923,0.6054511697295859 l -17.614782342219087 -12.004268205188838" fill="#ffe215" stroke="none" /><path d="M 116.71984013943494 112.70617746262583 l 15.683165405021905 11.918360531565288 a40.697943925233645,40.697943925233645 0 0,0 -0.42867179759538127,0.5541160839318651 l -15.475686790208455 -12.186554609610404" fill="#ffcc13" stroke="none" /><path d="M 115.80600337817218 113.82643327865902 l 15.332034304909497 13.411824878874402 a41.370280373831775,41.370280373831775 0 0,0 -0.47347527501988107,0.5319544907617648 l -15.098900180241278 -13.673753539377033" fill="#ffd513" stroke="none" /><path d="M 114.81725581225074 114.88116024355365 l 14.621011249290087 14.684069309486826 a41.721869158878505,41.721869158878505 0 0,0 -0.5132784230555782,0.5023509677476355 l -14.366082873858714 -14.933570380157034" fill="#ffda14" stroke="none" /><line stroke="#e1ed5e" stroke-width="0.3" x1="143.8653032363475" x2="146.44561519142675" y1="172.8068346515853" y2="177.08958963109032" /><path d="M 144.38136562736335 173.6633856474863 a86.0,86.0 0 0,1 -40.68145358897372,12.25698825130547" fill="none" id="id42" stroke="none" /><text fill="#e1ed5e" style="font-size:6.75px; font-family:Arial;" text-anchor="middle"><textPath startOffset="21.466115282336833" xlink:href="#id42">June</textPath></text><path d="M 103.7750983002368 120.6578951692458 l 3.0082846081166132 16.461777450889258 a37.73439252336449,37.73439252336449 0 0,0 -0.6399591765749358,0.11126510589014504 l -2.7244764600696274 -16.51112113530041" fill="#ffa20f" stroke="none" /><path d="M 101.62511606390274 120.93702456842531 l 1.2432463346011562 16.01724309440282 a37.06542056074767,37.06542056074767 0 0,0 -0.6365319495998053,0.04389897002599602 l -0.9673516242224206 -16.0362704089451" fill="#ff980e" stroke="none" /><line stroke="#e1ed5e" stroke-width="0.3" x1="102.19456741930631" x2="102.32365962044197" y1="184.97166512339345" y2="189.96999836594603" /><path d="M 102.22038585953345 185.97133177190398 a86.0,86.0 0 0,1 -42.740103519485714,-10.115201625700543" fill="none" id="id43" stroke="none" /><text fill="#e1ed5e" style="font-size:6.75px; font-family:Arial;" text-anchor="middle"><textPath startOffset="22.20632615414155" xlink:href="#id43">July</textPath></text><path d="M 100.18074693466247 120.99922214144158 l 0.15090559161792305 17.532247762255103 a38.53289719626168,38.53289719626168 0 0,0 -0.663305052560745,0.0 l 0.15090559161791098 -17.532247762255103" fill="#ffad10" stroke="none" /><path d="M 98.37488393609728 120.93702456842531 l -1.3903529689570922 17.91247709405467 a38.96635514018692,38.96635514018692 0 0,0 -0.668283534316162,-0.05766231533125981 l 1.698480821014796 -17.885890526444744" fill="#ffb310" stroke="none" /><path d="M 97.65516085044442 120.86867818915974 l -1.5892937819270865 14.144450159557861 a35.23345794392524,35.23345794392524 0 0,0 -0.6021105641498546,-0.07290720410147322 l 1.8325317691283305 -14.114997426731039" fill="#ff7e0b" stroke="none" /><path d="M 94.46302465271185 120.25689768951611 l -4.789003163524979 17.52045855970938 a39.16317757009345,39.16317757009345 0 0,0 -0.6487451826009522,-0.18334186874350678 l 5.089879514230545 -17.435427897627353" fill="#ffb610" stroke="none" /><path d="M 93.42475214034765 119.94407469862007 l -6.242359476691046 18.934355990246672 a40.93682242990654,40.93682242990654 0 0,0 -0.6673292073872034,-0.2263942991852984 l 6.567358417015476 -18.82409870416325" fill="#ffcf13" stroke="none" /><path d="M 91.07499286063937 119.00905698771935 l -5.052340490105353 10.760801285437925 a32.887850467289724,32.887850467289724 0 0,0 -0.5103682782853353,-0.24500778860615935 l 5.2368214363909305 -10.672239220332203" fill="#ff5b08" stroke="none" /><line stroke="#e1ed5e" stroke-width="0.3" x1="58.666819895761336" x2="56.23545636021788" y1="174.27360380694188" y2="178.64263932499728" /><path d="M 58.180547188652646 175.14741091055294 a86.0,86.0 0 0,1 -31.652253787137756,-30.449443065178592" fill="none" id="id44" stroke="none" /><text fill="#e1ed5e" style="font-size:6.75px; font-family:Arial;" text-anchor="middle"><textPath startOffset="22.20632615414155" xlink:href="#id44">August</textPath></text><path d="M 87.36589467227662 116.77436683061367 l -10.087042704911315 13.392618644468588 a37.76635514018692,37.76635514018692 0 0,0 -0.5159086818681887,-0.39557677778175826 l 10.31608011527299 -13.217002524859463" fill="#ffa20f" stroke="none" /><path d="M 84.9287848128048 114.62390073753433 l -12.113313141110153 11.753789377831325 a37.87850467289719,37.87850467289719 0 0,0 -0.45002089330711403,-0.47184510747268665 l 12.313840585796225 -11.543537153776137" fill="#ffa40f" stroke="none" /><path d="M 83.28015986056508 112.70617746262583 l -16.25105957477787 12.349929496383991 a41.41121495327103,41.41121495327103 0 0,0 -0.4264146983863276,-0.5712521721825795 l 16.46123553985928 -12.068364444692104" fill="#ffd513" stroke="none" /><path d="M 82.24976979558568 111.22182372390057 l -16.8259859080563 10.63750980503258 a40.90654205607477,40.90654205607477 0 0,0 -0.37114965383772014,-0.598411418608918 l 17.006600201561977 -10.346302055058398" fill="#ffce13" stroke="none" /><line stroke="#e1ed5e" stroke-width="0.3" x1="26.63291911575756" x2="22.317208475507996" y1="142.92168965132927" y2="145.44649492493687" /><path d="M 25.769776987707644 143.4266507060508 a86.0,86.0 0 0,1 -11.730757126820373,-40.83630448921669" fill="none" id="id45" stroke="none" /><text fill="#e1ed5e" style="font-size:6.75px; font-family:Arial;" text-anchor="middle"><textPath startOffset="21.46611528233685" xlink:href="#id45">September</textPath></text><path d="M 81.02952815118164 109.00673069616217 l -18.721246958307862 8.888404621328743 a41.724112149532715,41.724112149532715 0 0,0 -0.3024509028086029,-0.6514523373542599 l 18.87147247795629 -8.564832216695656" fill="#ffda14" stroke="none" /><path d="M 79.07016306316243 101.71520430193888 l -16.92438590008684 1.3869567924062782 a37.9811214953271,37.9811214953271 0 0,0 -0.04779009217592988,-0.6520578383355117 l 16.945752550927104 -1.095425817574006" fill="#ffa60f" stroke="none" /><line stroke="#e1ed5e" stroke-width="0.3" x1="15.007084014347285" x2="10.007500721073583" y1="101.09737516637583" y2="101.16192664675087" /><path d="M 14.007167355692545 101.11028546245083 a86.0,86.0 0 0,1 10.666146001902534,-42.60595125391555" fill="none" id="id46" stroke="none" /><text fill="#e1ed5e" style="font-size:6.75px; font-family:Arial;" text-anchor="middle"><textPath startOffset="22.20632615414155" xlink:href="#id46">October</textPath></text><path d="M 79.00175016825051 100.2711162175752 l -22.026014636598546 0.2843860714287518 a43.027850467289724,43.027850467289724 0 0,0 -0.0031875496951819836,-0.7406742912949901 l 22.027646483583233 0.09479769806991367" fill="#ffeb16" stroke="none" /><path d="M 79.01574976396665 99.18683210126434 l -22.48704754265662 -0.8714033140736784 a43.50392523364486,43.50392523364486 0 0,0 0.035437866115586,-0.7480373438177225 l 22.468716068307536 1.25835176451441" fill="#fff216" stroke="none" /><path d="M 79.16333360222342 97.38593545837743 l -22.424592857035705 -2.8132778981456807 a43.6003738317757,43.6003738317757 0 0,0 0.09983240078123326,-0.7438673439547255 l 22.37284445719664 3.198863584165066" fill="#fff316" stroke="none" /><path d="M 79.81627453868168 94.20196356495316 l -21.962803638829975 -6.309099673286888 a43.85102803738317,43.85102803738317 0 0,0 0.21464890894438995,-0.7236894132719328 l 21.850948832773877 6.6862184733053605" fill="#fff617" stroke="none" /><path d="M 80.95270993114464 91.15688171328213 l -15.93614792329626 -7.398702944665716 a38.569906542056074,38.569906542056074 0 0,0 0.28475942731596277,-0.5997759766354412 l 15.806430302138546 7.67192133694169" fill="#ffae10" stroke="none" /><line stroke="#e1ed5e" stroke-width="0.3" x1="26.266209847984243" x2="21.928928074336255" y1="57.711370442889674" y2="55.22380399835377" /><path d="M 25.398753493254645 57.213857153982495 a86.0,86.0 0 0,1 29.58750427330803,-30.492523968695096" fill="none" id="id47" stroke="none" /><text fill="#e1ed5e" style="font-size:6.75px; font-family:Arial;" text-anchor="middle"><textPath startOffset="21.46611528233685" xlink:href="#id47">November</textPath></text><path d="M 81.96595687620814 89.24020034530311 l -15.056138646421266 -8.983067984078854 a38.53233644859813,38.53233644859813 0 0,0 0.3447436797053222,-0.5666679651883223 l 14.899279168429727 9.24090372247425" fill="#ffad10" stroke="none" /><path d="M 82.54541684631803 88.32363383020206 l -19.248979552658618 -12.876740262020155 a44.1588785046729,44.1588785046729 0 0,0 0.42807939462180766,-0.6281536893846398 l 19.024475692368068 13.206171974675211" fill="#fffa17" stroke="none" /><path d="M 83.6137871275137 86.86637796730984 l -18.373560772802254 -14.726490157455942 a44.54691588785046,44.54691588785046 0 0,0 0.4847160692247589,-0.5942045873963879 l 18.1173462115011 15.040578914460411" fill="#ffff18" stroke="none" /><path d="M 84.5562425177563 85.77008943001954 l -17.549799390436455 -16.1704220060523 a44.86373831775701,44.86373831775701 0 0,0 0.5281801033674162,-0.5634257079796486 l 17.268851965098584 16.470117130909998" fill="#faff18" stroke="none" /><path d="M 86.65592168130627 83.78471172551755 l -15.286006939171186 -18.575056528045312 a45.05607476635514,45.05607476635514 0 0,0 0.603100451945057,-0.4876652893144675 l 14.964003088661629 18.835427914623914" fill="#f8ff18" stroke="none" /><path d="M 87.80319425747018 82.90503203632743 l -17.02048771456212 -23.855810967943718 a50.30523364485982,50.30523364485982 0 0,0 0.7092291999148266,-0.4968603783926288 l 16.607327375063633 24.14525618910029" fill="#b5ff1f" stroke="none" /><line stroke="#e1ed5e" stroke-width="0.3" x1="56.762969772571076" x2="54.21961505331055" y1="26.818313649435495" y2="22.513508569990535" /><path d="M 56.25429882871897 25.957352633546506 a86.0,86.0 0 0,1 42.265352541879196,-11.944610805530505" fill="none" id="id48" stroke="none" /><text fill="#e1ed5e" style="font-size:6.75px; font-family:Arial;" text-anchor="middle"><textPath startOffset="22.20632615414155" xlink:href="#id48">December</textPath></text><path d="M 89.3179101791058 81.91981866633112 l -14.860797854968974 -25.15293584737379 a50.21495327102804,50.21495327102804 0 0,0 0.7479714982037539,-0.43327336997920624 l 14.4256296242999 25.405013374743042" fill="#b6ff1f" stroke="none" /><path d="M 90.91171255644093 81.06846463323043 l -11.648539313506944 -24.264718227101167 a47.915887850467286,47.915887850467286 0 0,0 0.7466248823617745,-0.35055039341552335 l 11.22913621984556 24.4616336031567" fill="#d3ff1c" stroke="none" /><path d="M 92.57280143429618 80.3572730644239 l -10.434569434871573 -27.59632670195998 a50.503177570093456,50.503177570093456 0 0,0 0.8157890684010495,-0.30046199861926254 l 9.957998040697953 27.771851968385565" fill="#b3ff20" stroke="none" /><path d="M 93.59665428221793 80.00007090966166 l -10.007685577083711 -31.257566078972047 a53.82056074766355,53.82056074766355 0 0,0 0.884744991381155,-0.27489457554005947 l 9.468155212991826 31.42520078939463" fill="#8bff24" stroke="none" /><path d="M 94.98787191387505 79.60689891045804 l -7.509359006258605 -30.553711856691848 a52.462990654205605,52.462990654205605 0 0,0 0.8788208296788326,-0.20798849682275705 l 6.982314489617239 30.678446265655477" fill="#9bff22" stroke="none" /><path d="M 96.04723909329186 79.375362276772 l -11.858282720124423 -61.87391316968403 a84.0,84.0 0 0,0 1.4224195155884267,-0.2599380745970552 l 10.791468083433102 62.06886672563182" fill="#4dd2ff" stroke="none" /></svg>