<?xml version="1.0" encoding="utf-8" ?>
<svg baseProfile="full" height="200mm" version="1.1" viewBox="0,0,200,200" width="200mm" xmlns="http://www.w3.org/2000/svg" xmlns:ev="http://www.w3.org/2001/xml-events" xmlns:xlink="http://www.w3.org/1999/xlink"><defs /><rect fill="#1a1a1a" height="200" width="200" x="0" y="0" /><text alignment-baseline="middle" fill="#e1ed5e" style="dominant-baseline: central; font-size:9.0px; font-family:Arial;" text-anchor="middle" x="100.0" y="100.0">2021</text><line stroke="#e1ed5e" stroke-width="0.3" x1="100.0" x2="100.0" y1="15.0" y2="10.0" /><path d="M 100.0 14.0 a86.0,86.0 0 0,1 42.46469731375804,11.215312516191453" fill="none" id="id25" stroke="none" /><text fill="#e1ed5e" style="font-size:6.75px; font-family:Arial;" text-anchor="middle"><textPath startOffset="22.20632615414155" xlink:href="#id25">January</textPath></text><path d="M 101.08401301168833 79.027996857942 l 2.464332347642066 -47.67653633357305 a68.74018276762402,68.74018276762402 0 0,0 1.181146033917146,0.0712499543357874 l -3.2846404303988237 47.62705310985695" fill="#40ff2d" stroke="none" /><path d="M 101.80526077348638 79.07773832637324 l 3.806319282039656 -44.11374201545838 a65.27765013054831,65.27765013054831 0 0,0 1.1186564783132655,0.10622991183524734 l -4.565100887443165 44.04168655910795" fill="#7bff26" stroke="none" /><path d="M 102.88285421437855 79.19881850522331 l 6.75197575959269 -48.71875675263584 a70.18441253263708,70.18441253263708 0 0,0 1.195243952955373,0.17614788887580918 l -7.589588692976719 48.59531437959907" fill="#30ff38" stroke="none" /><path d="M 103.59715602781102 79.31037775812273 l 8.34070595837562 -47.97291365044786 a69.69258485639686,69.69258485639686 0 0,0 1.1801439618040386,0.2156637657293219 l -9.16524504128256 47.8222344033678" fill="#30ff2f" stroke="none" /><path d="M 105.71112130821622 79.79150937346287 l 10.677709230220328 -37.7824905559907 a60.26232375979112,60.26232375979112 0 0,0 0.9957912308269268,0.29069876667185524 l -11.326490678770682 37.593093460400134" fill="#d9ff1c" stroke="none" /><path d="M 107.08798089147638 80.2323363322302 l 15.971275167501378 -44.542275253060055 a68.31908616187988,68.31908616187988 0 0,0 1.1035734053893262,0.4064553986439721 l -16.73563089866328 44.26075658660976" fill="#47ff2c" stroke="none" /><path d="M 108.09893153111575 80.62456947434976 l 17.79185120535292 -42.56422907486057 a67.13310704960836,67.13310704960836 0 0,0 1.0623534220279212,0.45484429334965576 l -18.521888385171156 42.251665253548126" fill="#5bff2a" stroke="none" /><line stroke="#e1ed5e" stroke-width="0.3" x1="143.23703022742887" x2="145.7803849466894" y1="26.81831364943548" y2="22.513508569990506" /><path d="M 143.74570117128098 25.957352633546492 a86.0,86.0 0 0,1 28.547481713284135,27.462654790039103" fill="none" id="id26" stroke="none" /><text fill="#e1ed5e" style="font-size:6.75px; font-family:Arial;" text-anchor="middle"><textPath startOffset="19.985693538727396" xlink:href="#id26">February</textPath></text><path d="M 110.99172775467656 82.1063720568725 l 25.396917909199665 -41.34409167621735 a69.52151436031332,69.52151436031332 0 0,0 1.014288595146508,0.6351474252297288 l -26.104825656718436 40.900799909664684" fill="#33ff2f" stroke="none" /><line stroke="#e1ed5e" stroke-width="0.3" x1="172.23445277983987" x2="176.4835382374775" y1="55.19839476539836" y2="52.563006222186495" /><path d="M 173.08426987136738 54.67131705675599 a86.0,86.0 0 0,1 12.851231095245387,41.99856678651699" fill="none" id="id27" stroke="none" /><text fill="#e1ed5e" style="font-size:6.75px; font-family:Arial;" text-anchor="middle"><textPath startOffset="22.20632615414155" xlink:href="#id27">March</textPath></text><path d="M 118.3937258080291 89.86733742301442 l 22.76403663970181 -12.540162040446916 a46.989556135770236,46.989556135770236 0 0,0 0.3841774385633829,0.7118224472169266 l -22.97652217748366 12.14645860989753" fill="#ff0000" stroke="none" /><path d="M 119.196687751892 91.48605970444005 l 44.508247320313586 -19.73989290458807 a69.68929503916449,69.68929503916449 0 0,0 0.47690472007820567,1.100761846554642 l -44.84144275023447 18.970831913446826" fill="#30ff2f" stroke="none" /><path d="M 119.34039704204932 91.81776055985345 l 41.6601241767381 -17.6249282979658 a66.23498694516971,66.23498694516971 0 0,0 0.43519008418139304,1.0538473078130806 l -41.957335947805696 16.905206419699415" fill="#6aff28" stroke="none" /><path d="M 119.85752413597 93.16781622104841 l 44.07437106398269 -15.164237041282401 a67.61013054830286,67.61013054830286 0 0,0 0.3691600255767774,1.1037414888996162 l -44.32886838333123 14.403322449460472" fill="#53ff2b" stroke="none" /><path d="M 120.08093135843002 93.85539295169968 l 45.300064474369535 -13.861463419664418 a68.37336814621409,68.37336814621409 0 0,0 0.33468471619244705,1.1283904823161284 l -45.53195508767369 13.079643550601759" fill="#46ff2c" stroke="none" /><path d="M 120.28053869075195 94.5502522615342 l 53.65023236575188 -14.416788279728882 a76.55349869451697,76.55349869451697 0 0,0 0.3310161185535303,1.275540134759662 l -53.890444816175716 13.491151719420369" fill="#3effb1" stroke="none" /><path d="M 120.6074358757038 95.95851677861258 l 47.123771510858745 -9.241806357586263 a69.02146214099217,69.02146214099217 0 0,0 0.21861488519005465,1.1678494582991559 l -47.27587211995866 8.429278821824544" fill="#3bff2e" stroke="none" /><path d="M 120.78858239683441 97.02765380044208 l 53.466822689299576 -7.644672647191962 a75.01057441253263,75.01057441253263 0 0,0 0.1717527871773556,1.2797577601525743 l -53.59049147553477 6.723196544974724" fill="#3aff95" stroke="none" /><path d="M 120.91429891909075 98.10471618934814 l 46.48544225546627 -4.212577551779945 a67.67592689295039,67.67592689295039 0 0,0 0.09515079402421414,1.1610806952187862 l -46.551067533309975 3.4117829393533903" fill="#52ff2b" stroke="none" /><path d="M 120.96714384426684 98.82574320788733 l 48.828262686728266 -2.7346079910941308 a69.9047780678851,69.9047780678851 0 0,0 0.05694373904665362,1.2019923311570204 l -48.868100034008414 1.8937045533141106" fill="#30ff33" stroke="none" /><line stroke="#e1ed5e" stroke-width="0.3" x1="184.98032266829074" x2="189.97916517819016" y1="98.17113171792111" y2="98.06355123074" /><path d="M 185.9800911702706 98.14961562048488 a86.0,86.0 0 0,1 -9.607161424134198,41.387399972396054" fill="none" id="id28" stroke="none" /><text fill="#e1ed5e" style="font-size:6.75px; font-family:Arial;" text-anchor="middle"><textPath startOffset="21.466115282336823" xlink:href="#id28">April</textPath></text><path d="M 120.9764740272857 100.99374915477107 l 47.57497170705411 2.2538386508926496 a68.62832898172323,68.62832898172323 0 0,0 -0.06605852196246462,1.1795192852448233 l -47.52912683420412 -3.0724296524728962" fill="#42ff2d" stroke="none" /><path d="M 120.64145759157962 103.86396538481128 l 47.049588713966095 8.807419793577672 a68.8668407310705,68.8668407310705 0 0,0 -0.2281462250197542,1.163312686168828 l -46.891012555970676 -9.615996206814446" fill="#3eff2e" stroke="none" /><path d="M 120.02730092923936 106.31721596034902 l 42.526378659849854 13.414105023689418 a65.59182767624021,65.59182767624021 0 0,0 -0.3489102581639536,1.0738353575027753 l -42.289176150669654 -14.14413928116999" fill="#76ff27" stroke="none" /><path d="M 119.79798401119884 107.00284435728193 l 41.55715735238432 14.699390842279975 a65.08026109660575,65.08026109660575 0 0,0 -0.38265873013696133,1.0529124799518088 l -41.29797436124213 -15.412551119237916" fill="#7fff26" stroke="none" /><line stroke="#e1ed5e" stroke-width="0.3" x1="174.80103733775053" x2="179.2010983576182" y1="140.37084112569926" y2="142.7455964860345" /><path d="M 175.68104954172406 140.8457921977663 a86.0,86.0 0 0,1 -30.038265399797805,32.042727171017184" fill="none" id="id29" stroke="none" /><text fill="#e1ed5e" style="font-size:6.75px; font-family:Arial;" text-anchor="middle"><textPath startOffset="22.206326154141568" xlink:href="#id29">May</textPath></text><path d="M 116.71984013943494 112.70617746262583 l 37.97979352822034 28.862596325024718 a68.7023498694517,68.7023498694517 0 0,0 -0.723642449153421,0.9354054135146067 l -37.47734426184885 -29.51207973265258" fill="#40ff2d" stroke="none" /><path d="M 115.07121518719521 114.62390073753431 l 33.29046487824319 32.30240215131601 a67.38642297650131,67.38642297650131 0 0,0 -0.8149244694693127,0.8255141851116531 l -32.72949978371834 -32.87065683040833" fill="#57ff2a" stroke="none" /><path d="M 112.92097659922987 116.55440617244103 l 29.24931256274754 37.474334599233366 a68.5378590078329,68.5378590078329 0 0,0 -0.9362639409481276,0.717887265576464 l -28.59991989330592 -37.9722612066372" fill="#43ff2d" stroke="none" /><path d="M 112.34349029814194 116.9893568818739 l 28.03873775295949 38.59201171600597 a68.7023498694517,68.7023498694517 0 0,0 -0.9627249561497326,0.6868786942798779 l -27.370285468960876 -39.06893467213007" fill="#40ff2d" stroke="none" /><path d="M 111.1453310114006 117.79835938074945 l 30.961031147727596 49.44272705782867 a79.33668407310705,79.33668407310705 0 0,0 -1.1636832810912425,0.7148293157250085 l -30.105368666704045 -49.96834484038206" fill="#43ffe2" stroke="none" /><line stroke="#e1ed5e" stroke-width="0.3" x1="143.8653032363475" x2="146.44561519142675" y1="172.8068346515853" y2="177.08958963109032" /><path d="M 144.38136562736335 173.6633856474863 a86.0,86.0 0 0,1 -40.68145358897372,12.25698825130547" fill="none" id="id30" stroke="none" /><text fill="#e1ed5e" style="font-size:6.75px; font-family:Arial;" text-anchor="middle"><textPath startOffset="21.466115282336833" xlink:href="#id30">June</textPath></text><path d="M 110.5260780823613 118.17145234162733 l 28.200270129321403 48.682886509713796 a77.26080939947781,77.26080939947781 0 0,0 -1.1565252715900982,0.6567052326643524 l -27.358096090810108 -49.16109490817277" fill="#3fffbe" stroke="none" /><path d="M 108.92500713936063 119.00905698771935 l 21.017343183112633 44.76409576596301 a70.45253263707572,70.45253263707572 0 0,0 -1.1021862738342751,0.5059596594943634 l -20.243688913510937 -45.119242495791454" fill="#31ff3e" stroke="none" /><path d="M 104.13013068566511 120.58985236759428 l 9.04142760336567 45.074036081163825 a66.97190600522194,66.97190600522194 0 0,0 -1.13224740693874,0.21699791031135013 l -8.264212581855226 -45.22299118982364" fill="#5eff2a" stroke="none" /><path d="M 101.62511606390274 120.93702456842531 l 3.3858847663510794 43.62171669677898 a64.75292428198433,64.75292428198433 0 0,0 -1.1120150402164664,0.07669106782402797 l -2.634506965355683 -43.6735361091193" fill="#85ff25" stroke="none" /><line stroke="#e1ed5e" stroke-width="0.3" x1="102.19456741930631" x2="102.32365962044197" y1="184.97166512339345" y2="189.96999836594603" /><path d="M 102.22038585953345 185.97133177190398 a86.0,86.0 0 0,1 -42.740103519485714,-10.115201625700543" fill="none" id="id31" stroke="none" /><text fill="#e1ed5e" style="font-size:6.75px; font-family:Arial;" text-anchor="middle"><textPath startOffset="22.20632615414155" xlink:href="#id31">July</textPath></text><path d="M 99.09653310690486 120.98055641714683 l -1.9522669331448206 45.336079102858704 a66.37809399477806,66.37809399477806 0 0,0 -1.141108758480277,-0.05898228860472784 l 2.7323637600385866 -45.29575700749177" fill="#68ff28" stroke="none" /><path d="M 96.93821686468263 120.77559828337769 l -6.468836280071689 43.89401142278433 a65.36812010443865,65.36812010443865 0 0,0 -1.1117689602207885,-0.173635446903013 l 7.223441103900995 -43.77615766853421" fill="#7aff26" stroke="none" /><path d="M 96.22490169976321 120.6578951692458 l -11.325294900710388 61.97368550773742 a84.0,84.0 0 0,0 -1.4201295417132198,-0.2721712066061275 l 12.390392056995301 -61.76955710278283" fill="#4dd2ff" stroke="none" /><line stroke="#e1ed5e" stroke-width="0.3" x1="58.666819895761336" x2="56.23545636021788" y1="174.27360380694188" y2="178.64263932499728" /><path d="M 58.180547188652646 175.14741091055294 a86.0,86.0 0 0,1 -31.652253787137756,-30.449443065178592" fill="none" id="id32" stroke="none" /><text fill="#e1ed5e" style="font-size:6.75px; font-family:Arial;" text-anchor="middle"><textPath startOffset="22.20632615414155" xlink:href="#id32">August</textPath></text><path d="M 88.8546689885994 117.79835938074946 l -19.293353682920614 30.810214802707282 a57.35248041775457,57.35248041775457 0 0,0 -0.8322068800493944,-0.5311538053532658 l 19.820842365016933 -30.473546568530214" fill="#ffea16" stroke="none" /><path d="M 87.65650970185807 116.9893568818739 l -26.9442601275681 37.08559250005706 a66.84031331592689,66.84031331592689 0 0,0 -0.9249904586447869,-0.6842858279067227 l 27.57863555663145 -36.61629672341057" fill="#60ff29" stroke="none" /><path d="M 83.28015986056508 112.70617746262583 l -35.35263953450964 26.866100868886836 a65.4026631853786,65.4026631853786 0 0,0 -0.6734566210463935,-0.9022051985997579 l 35.80985742225112 -26.25358279077777" fill="#79ff26" stroke="none" /><path d="M 82.05923443525364 110.91462005526583 l -39.107589940051696 23.79187688130492 a66.77616187989557,66.77616187989557 0 0,0 -0.5889629632203508,-0.9871358034436603 l 39.511333778970275 -23.11517898397515" fill="#61ff29" stroke="none" /><line stroke="#e1ed5e" stroke-width="0.3" x1="26.63291911575756" x2="22.317208475507996" y1="142.92168965132927" y2="145.44649492493687" /><path d="M 25.769776987707644 143.4266507060508 a86.0,86.0 0 0,1 -11.730757126820373,-40.83630448921669" fill="none" id="id33" stroke="none" /><text fill="#e1ed5e" style="font-size:6.75px; font-family:Arial;" text-anchor="middle"><textPath startOffset="21.46611528233685" xlink:href="#id33">September</textPath></text><path d="M 80.73074385275274 108.34839909993369 l -45.88397286237469 19.879216655716778 a71.00522193211489,71.00522193211489 0 0,0 -0.4762388494933759,-1.1256879615204292 l 46.21936269306037 -19.08645416853019" fill="#32ff49" stroke="none" /><path d="M 79.67330655649465 105.27499134158121 l -46.652149706643605 12.106724905979455 a69.19746736292427,69.19746736292427 0 0,0 -0.28927403399531926,-1.1555059708754818 l 46.85363505493398 -11.30189109570658" fill="#38ff2e" stroke="none" /><line stroke="#e1ed5e" stroke-width="0.3" x1="15.007084014347285" x2="10.007500721073583" y1="101.09737516637583" y2="101.16192664675087" /><path d="M 14.007167355692545 101.11028546245083 a86.0,86.0 0 0,1 10.666146001902534,-42.60595125391555" fill="none" id="id34" stroke="none" /><text fill="#e1ed5e" style="font-size:6.75px; font-family:Arial;" text-anchor="middle"><textPath startOffset="22.20632615414155" xlink:href="#id34">October</textPath></text><path d="M 81.26839172434947 90.50648371742162 l -41.98032187855712 -21.276382862438577 a68.06412532637074,68.06412532637074 0 0,0 0.5386483604500283,-1.0404971840598167 l 41.60786408494698 21.995852768758727" fill="#4bff2c" stroke="none" /><line stroke="#e1ed5e" stroke-width="0.3" x1="26.266209847984243" x2="21.928928074336255" y1="57.711370442889674" y2="55.22380399835377" /><path d="M 25.398753493254645 57.213857153982495 a86.0,86.0 0 0,1 29.58750427330803,-30.492523968695096" fill="none" id="id35" stroke="none" /><text fill="#e1ed5e" style="font-size:6.75px; font-family:Arial;" text-anchor="middle"><textPath startOffset="21.46611528233685" xlink:href="#id35">November</textPath></text><path d="M 82.54541684631803 88.32363383020206 l -39.6323856234151 -26.512363122462343 a68.68261096605744,68.68261096605744 0 0,0 0.6658142488895797,-0.9770002530823665 l 39.17014690885678 27.190641398815124" fill="#41ff2d" stroke="none" /><path d="M 84.5562425177563 85.77008943001954 l -33.59682583976666 -30.95618586893478 a66.68404699738903,66.68404699738903 0 0,0 0.7850702629053556,-0.8374582190263294 l 33.05898825489084 31.52991350483916" fill="#63ff29" stroke="none" /><path d="M 85.05521093208273 85.24692304244772 l -32.027892602993475 -31.617038033313108 a66.0046997389034,66.0046997389034 0 0,0 0.8051448139910924,-0.8016872662856354 l 31.47891198883507 32.16366115024885" fill="#6eff28" stroke="none" /><path d="M 85.83668400450813 84.49514656593479 l -31.773162149677855 -34.782689479239785 a68.11018276762402,68.11018276762402 0 0,0 0.8724233713010036,-0.7832703167279423 l 31.16972779078088 35.324458804737006" fill="#4aff2c" stroke="none" /><path d="M 86.65592168130627 83.78471172551755 l -30.26666912854419 -36.77906808596774 a68.6316187989556,68.6316187989556 0 0,0 0.9186721331144362,-0.742835642280706 l 29.629093596865257 37.29460982551257" fill="#42ff2d" stroke="none" /><path d="M 87.80319425747018 82.90503203632743 l -27.335812222794203 -38.31370639774647 a68.06577023498696,68.06577023498696 0 0,0 0.9596264298491907,-0.672279639794437 l 26.672254653361353 38.778570880304855" fill="#4bff2c" stroke="none" /><line stroke="#e1ed5e" stroke-width="0.3" x1="56.762969772571076" x2="54.21961505331055" y1="26.818313649435495" y2="22.513508569990535" /><path d="M 56.25429882871897 25.957352633546506 a86.0,86.0 0 0,1 42.265352541879196,-11.944610805530505" fill="none" id="id36" stroke="none" /><text fill="#e1ed5e" style="font-size:6.75px; font-family:Arial;" text-anchor="middle"><textPath startOffset="22.20632615414155" xlink:href="#id36">December</textPath></text><path d="M 89.63071344664047 81.73862282372117 l -22.454514051241045 -39.544702356298 a66.47514360313315,66.47514360313315 0 0,0 0.9998998352241079,-0.5564431757336381 l 21.770490126944892 39.92536092959182" fill="#66ff29" stroke="none" /><path d="M 90.91171255644093 81.06846463323043 l -20.013690328058978 -41.68991007582451 a67.24496083550915,67.24496083550915 0 0,0 1.0478103031277657,-0.4919609869207361 l 19.293101813631605 42.02823604538525" fill="#59ff2a" stroke="none" /><path d="M 92.23578459929587 80.48803036053334 l -18.316047667598422 -46.029398665677604 a70.53971279373368,70.53971279373368 0 0,0 1.1320509879798077,-0.43921819586884236 l 17.521013514618936 46.337859565437" fill="#31ff3f" stroke="none" /></svg>