<?xml version="1.0" encoding="utf-8" ?>
<svg baseProfile="full" height="200mm" version="1.1" viewBox="0,0,200,200" width="200mm" xmlns="http://www.w3.org/2000/svg" xmlns:ev="http://www.w3.org/2001/xml-events" xmlns:xlink="http://www.w3.org/1999/xlink"><defs /><rect fill="#1a1a1a" height="200" width="200" x="0" y="0" /><text alignment-baseline="middle" fill="#e1ed5e" style="dominant-baseline: central; font-size:9.0px; font-family:Arial;" text-anchor="middle" x="100.0" y="100.0">2023</text><line stroke="#e1ed5e" stroke-width="0.3" x1="100.0" x2="100.0" y1="15.0" y2="10.0" /><path d="M 100.0 14.0 a86.0,86.0 0 0,1 42.46469731375804,11.215312516191453" fill="none" id="id49" stroke="none" /><text fill="#e1ed5e" style="font-size:6.75px; font-family:Arial;" text-anchor="middle"><textPath startOffset="22.20632615414155" xlink:href="#id49">January</textPath></text><path d="M 101.80526077348638 79.07773832637324 l 5.286122532471501 -61.26407912228311 a82.49171067818546,82.49171067818546 0 0,0 1.4136520903057304,0.13424329973516413 l -6.339899749867476 61.16401027803276" fill="#4ae7ff" stroke="none" /><path d="M 106.0581310904928 79.89281104454417 l 9.118344383992216 -30.26416410459964 a52.607971039837714,52.607971039837714 0 0,0 0.8648114816649003,0.26870113703986936 l -9.637941238367835 30.10272283267725" fill="#ffd113" stroke="none" /><path d="M 106.74666289553966 80.11325718540242 l 14.89027743116167 -43.891198107332265 a67.34822146829423,67.34822146829423 0 0,0 1.0946266657838568,0.3818937501339856 l -15.643586101008799 43.628383504026075" fill="#38ff2e" stroke="none" /><path d="M 108.09893153111575 80.62456947434976 l 16.479856918312983 -39.42548737036189 a63.731191633730894,63.731191633730894 0 0,0 1.0085195292984166,0.4317954299590985 l -17.15606020540171 39.135972412440005" fill="#6eff28" stroke="none" /><path d="M 110.05341064243156 81.56283822128135 l 18.70259284232699 -34.299079404965795 a60.06678675107552,60.06678675107552 0 0,0 0.9035071895957997,0.5028007728035839 l -19.29022412099482 33.97206323460203" fill="#a9ff21" stroke="none" /><line stroke="#e1ed5e" stroke-width="0.3" x1="143.23703022742887" x2="145.7803849466894" y1="26.81831364943548" y2="22.513508569990506" /><path d="M 143.74570117128098 25.957352633546492 a86.0,86.0 0 0,1 28.547481713284135,27.462654790039103" fill="none" id="id50" stroke="none" /><text fill="#e1ed5e" style="font-size:6.75px; font-family:Arial;" text-anchor="middle"><textPath startOffset="19.985693538727396" xlink:href="#id50">February</textPath></text><path d="M 111.60114157652 82.49532879139004 l 26.47110189112002 -39.94158092781984 a68.91710678185443,68.91710678185443 0 0,0 0.983201984139365,0.663862368609985 l -27.154708569665928 39.480006646911185" fill="#31ff41" stroke="none" /><path d="M 113.34407831869373 83.78471172551755 l 39.59328194084102 -48.11246345161178 a83.30920569409955,83.30920569409955 0 0,0 1.099453260002013,0.9207604866686065 l -40.41559273780215 47.42380180754935" fill="#4cdbff" stroke="none" /><path d="M 114.42810811169701 84.74124197986012 l 39.96733805905365 -42.268323430277995 a79.17215207582805,79.17215207582805 0 0,0 0.9821748692866225,0.9448514460776017 l -40.68899617195269 41.574088897438095" fill="#44ffe8" stroke="none" /><path d="M 114.94478906791727 85.2469230424477 l 43.90760315151798 -43.3443553717741 a82.69773705012068,82.69773705012068 0 0,0 0.9913321774475623,1.0216549494182463 l -44.647199592668656 42.58213622680574" fill="#4be4ff" stroke="none" /><path d="M 117.65298651832404 88.62581576622439 l 51.77163861220212 -33.357537267045046 a82.58756251967402,82.58756251967402 0 0,0 0.759697046291088,1.2016582855922122 l -52.338163254739165 32.46143133373863" fill="#4ae5ff" stroke="none" /><line stroke="#e1ed5e" stroke-width="0.3" x1="172.23445277983987" x2="176.4835382374775" y1="55.19839476539836" y2="52.563006222186495" /><path d="M 173.08426987136738 54.67131705675599 a86.0,86.0 0 0,1 12.851231095245387,41.99856678651699" fill="none" id="id51" stroke="none" /><text fill="#e1ed5e" style="font-size:6.75px; font-family:Arial;" text-anchor="middle"><textPath startOffset="22.20632615414155" xlink:href="#id51">March</textPath></text><path d="M 118.21658344932153 89.55222093294921 l 52.41146355640549 -30.0596098791787 a81.4197124969396,81.4197124969396 0 0,0 0.6868038055714214,1.2217473344835144 l -52.92112500326934 29.152979034760396" fill="#48f6ff" stroke="none" /><path d="M 118.89224826269711 90.83032412892265 l 55.91255727748279 -27.13811613252478 a83.15055437025639,83.15055437025639 0 0,0 0.6138958158392287,1.2930211511095635 l -56.371411287163774 26.171652565774675" fill="#4bddff" stroke="none" /><path d="M 119.97218684219823 93.5106431181261 l 58.22013662584695 -18.916869107108496 a82.21627435206884,82.21627435206884 0 0,0 0.42574138003791256,1.3497165190435998 l -58.537133489653066 17.911902421638477" fill="#4aeaff" stroke="none" /><path d="M 120.37134235888165 94.90015583598534 l 60.02602596503596 -15.02715789729558 a82.87842328005316,82.87842328005316 0 0,0 0.3345415171546961,1.3868905674949314 l -60.27580028245148 13.991682098141244" fill="#4be1ff" stroke="none" /><path d="M 120.73433829027371 96.67025291283417 l 59.45412503523363 -9.547794430889885 a81.2158896156133,81.2158896156133 0 0,0 0.20978492241578028,1.382220525546994 l -59.609665851088714 8.522974792950809" fill="#48f8ff" stroke="none" /><path d="M 120.87857604477298 97.74499172005257 l 21.163738646482745 -2.285807508142297 a42.28682102759609,42.28682102759609 0 0,0 0.07193365680318595,0.7243621072546925 l -21.19994942896816 1.9211698701831694" fill="#ff0000" stroke="none" /><line stroke="#e1ed5e" stroke-width="0.3" x1="184.98032266829074" x2="189.97916517819016" y1="98.17113171792111" y2="98.06355123074" /><path d="M 185.9800911702706 98.14961562048488 a86.0,86.0 0 0,1 -9.607161424134198,41.387399972396054" fill="none" id="id52" stroke="none" /><text fill="#e1ed5e" style="font-size:6.75px; font-family:Arial;" text-anchor="middle"><textPath startOffset="21.466115282336823" xlink:href="#id52">April</textPath></text><path d="M 120.92983693683757 101.71520430193887 l 62.789510810512716 5.145612905816612 a84.0,84.0 0 0,0 -0.13050161489169865,1.4400744458057178 l -62.69163459934395 -6.2256687401709" fill="#4dd2ff" stroke="none" /><line stroke="#e1ed5e" stroke-width="0.3" x1="174.80103733775053" x2="179.2010983576182" y1="140.37084112569926" y2="142.7455964860345" /><path d="M 175.68104954172406 140.8457921977663 a86.0,86.0 0 0,1 -30.038265399797805,32.042727171017184" fill="none" id="id53" stroke="none" /><text fill="#e1ed5e" style="font-size:6.75px; font-family:Arial;" text-anchor="middle"><textPath startOffset="22.206326154141568" xlink:href="#id53">May</textPath></text><line stroke="#e1ed5e" stroke-width="0.3" x1="143.8653032363475" x2="146.44561519142675" y1="172.8068346515853" y2="177.08958963109032" /><path d="M 144.38136562736335 173.6633856474863 a86.0,86.0 0 0,1 -40.68145358897372,12.25698825130547" fill="none" id="id54" stroke="none" /><text fill="#e1ed5e" style="font-size:6.75px; font-family:Arial;" text-anchor="middle"><textPath startOffset="21.466115282336833" xlink:href="#id54">June</textPath></text><line stroke="#e1ed5e" stroke-width="0.3" x1="102.19456741930631" x2="102.32365962044197" y1="184.97166512339345" y2="189.96999836594603" /><path d="M 102.22038585953345 185.97133177190398 a86.0,86.0 0 0,1 -42.740103519485714,-10.115201625700543" fill="none" id="id55" stroke="none" /><text fill="#e1ed5e" style="font-size:6.75px; font-family:Arial;" text-anchor="middle"><textPath startOffset="22.20632615414155" xlink:href="#id55">July</textPath></text><line stroke="#e1ed5e" stroke-width="0.3" x1="58.666819895761336" x2="56.23545636021788" y1="174.27360380694188" y2="178.64263932499728" /><path d="M 58.180547188652646 175.14741091055294 a86.0,86.0 0 0,1 -31.652253787137756,-30.449443065178592" fill="none" id="id56" stroke="none" /><text fill="#e1ed5e" style="font-size:6.75px; font-family:Arial;" text-anchor="middle"><textPath startOffset="22.20632615414155" xlink:href="#id56">August</textPath></text><line stroke="#e1ed5e" stroke-width="0.3" x1="26.63291911575756" x2="22.317208475507996" y1="142.92168965132927" y2="145.44649492493687" /><path d="M 25.769776987707644 143.4266507060508 a86.0,86.0 0 0,1 -11.730757126820373,-40.83630448921669" fill="none" id="id57" stroke="none" /><text fill="#e1ed5e" style="font-size:6.75px; font-family:Arial;" text-anchor="middle"><textPath startOffset="21.46611528233685" xlink:href="#id57">September</textPath></text><line stroke="#e1ed5e" stroke-width="0.3" x1="15.007084014347285" x2="10.007500721073583" y1="101.09737516637583" y2="101.16192664675087" /><path d="M 14.007167355692545 101.11028546245083 a86.0,86.0 0 0,1 10.666146001902534,-42.60595125391555" fill="none" id="id58" stroke="none" /><text fill="#e1ed5e" style="font-size:6.75px; font-family:Arial;" text-anchor="middle"><textPath startOffset="22.20632615414155" xlink:href="#id58">October</textPath></text><line stroke="#e1ed5e" stroke-width="0.3" x1="26.266209847984243" x2="21.928928074336255" y1="57.711370442889674" y2="55.22380399835377" /><path d="M 25.398753493254645 57.213857153982495 a86.0,86.0 0 0,1 29.58750427330803,-30.492523968695096" fill="none" id="id59" stroke="none" /><text fill="#e1ed5e" style="font-size:6.75px; font-family:Arial;" text-anchor="middle"><textPath startOffset="21.46611528233685" xlink:href="#id59">November</textPath></text><line stroke="#e1ed5e" stroke-width="0.3" x1="56.762969772571076" x2="54.21961505331055" y1="26.818313649435495" y2="22.513508569990535" /><path d="M 56.25429882871897 25.957352633546506 a86.0,86.0 0 0,1 42.265352541879196,-11.944610805530505" fill="none" id="id60" stroke="none" /><text fill="#e1ed5e" style="font-size:6.75px; font-family:Arial;" text-anchor="middle"><textPath startOffset="22.20632615414155" xlink:href="#id60">December</textPath></text></svg>